# xmcd
#
# Track frame offsets:
#	150
#	17187
#	30455
#	46405
#	59092
#	85755
#	97490
#	118045
#	135357
#	148527
#	163627
#	183432
#
# Disc length: 2589
#
# Revision: 6
# Processed by: cddbd v1.5.1PL0 Copyright (c) Steve Scherf et al.
# Submitted via: ExactAudioCopy v0.95a5
# Normalized: r5:DSETVAR1
#
DISCID=a60a1b0c
DTITLE=Various Artist - Bawdy Blues
DYEAR=1991
DGENRE=Blues
TTITLE0=Memphis Slim - Sweet Root Man
TTITLE1=Tampa Red - Let Me Play With Your Poodle
TTITLE2=Victoria Spivey - I'm a Red Hot Mama
TTITLE3=Lonnie Johnson - Jelly Roll Baker
TTITLE4=Memphis Slim - Churning Man Blues
TTITLE5=Pink Anderson - Try Some of That
TTITLE6=Memphis Slim - Steady Rollin' Blues
TTITLE7=Tampa Red - Jelly Whipping Blues
TTITLE8=Victoria Spivey - That Man
TTITLE9=Memphis Willie B. - Car Machine Blues
TTITLE10=Memphis Slim - If You See Kay
TTITLE11=Blind Willie McTell - Beedle Um Bum
EXTD=LABEL =Prestige Bluesville Records - Fantasy Records\nID =OBCCD-544-2\nUPC =025218-0544-2\nCOPYRIGHT =1963, 1991
EXTT0=Memphis Slim
EXTT1=Tampa Red
EXTT2=Victoria Spivey
EXTT3=Lonnie Johnson
EXTT4=Memphis Slim
EXTT5=Pink Anderson
EXTT6=Memphis Slim
EXTT7=Tampa Red
EXTT8=Victoria Spivey
EXTT9=Memphis Willie B
EXTT10=Memphis Slim
EXTT11=Blind Willie McTell
PLAYORDER=
